<svg width="375" height="58" viewBox="0 0 375 58" fill="none" xmlns="http://www.w3.org/2000/svg">
<rect width="375" height="58" fill="#64AF9B"/>
<path fill-rule="evenodd" clip-rule="evenodd" d="M35 24V22H15V24H35ZM35 28V30H15V28H35ZM35 34V36H15V34H35Z" fill="white"/>
<path fill-rule="evenodd" clip-rule="evenodd" d="M348 40C341.925 40 337 35.0751 337 29C337 22.9249 341.925 18 348 18C354.075 18 359 22.9249 359 29C359 35.0751 354.075 40 348 40ZM355.399 34.1246C356.409 32.6703 357 30.9042 357 29C357 24.0294 352.971 20 348 20C343.029 20 339 24.0294 339 29C339 30.9042 339.591 32.6703 340.601 34.1246C341.726 32.6381 344.371 32 348 32C351.629 32 354.274 32.6381 355.399 34.1246ZM353.965 35.7398C353.672 34.6874 351.569 34 348 34C344.431 34 342.328 34.6874 342.035 35.7398C343.623 37.1462 345.712 38 348 38C350.288 38 352.377 37.1462 353.965 35.7398ZM348 32C345.761 32 344 30.4274 344 27C344 24.7558 345.579 23 348 23C350.414 23 352 24.9216 352 27.2C352 30.4796 350.218 32 348 32ZM346 27C346 29.2693 346.818 30 348 30C349.178 30 350 29.2984 350 27.2C350 25.9504 349.216 25 348 25C346.734 25 346 25.8158 346 27Z" fill="#F7FCED"/>
<path d="M128.533 39V18.75H137.54C138.771 18.75 139.826 19.193 140.704 20.0789C141.59 20.9648 142.033 22.0195 142.033 23.243V24.382C142.033 25.6969 141.657 26.7305 140.905 27.4828C140.16 28.2352 139.038 28.6992 137.54 28.875C139.038 28.875 140.16 29.3285 140.905 30.2355C141.657 31.1355 142.033 32.1797 142.033 33.368V34.507C142.033 35.7234 141.587 36.7781 140.694 37.6711C139.808 38.557 138.757 39 137.54 39H128.533ZM133.026 27.757H135.283C135.895 27.757 136.422 27.5355 136.865 27.0926C137.315 26.6426 137.54 26.1117 137.54 25.5V23.243C137.54 22.6312 137.315 22.1074 136.865 21.6715C136.422 21.2285 135.895 21.007 135.283 21.007H133.026V27.757ZM133.026 36.743H135.283C135.895 36.743 136.422 36.5215 136.865 36.0785C137.315 35.6355 137.54 35.1117 137.54 34.507V32.25C137.54 30.7453 136.788 29.993 135.283 29.993H133.026V36.743ZM160.016 23.243V39H155.523V36.743C155.347 38.2477 154.595 39 153.266 39H151.009C149.778 39 148.72 38.5605 147.834 37.6816C146.955 36.7957 146.516 35.7375 146.516 34.507V23.243H151.009V34.507C151.009 35.1117 151.227 35.6355 151.663 36.0785C152.106 36.5215 152.64 36.743 153.266 36.743C153.892 36.743 154.422 36.5215 154.858 36.0785C155.301 35.6355 155.523 35.1117 155.523 34.507V23.243H160.016ZM175.741 27.757H173.505C173.308 26.2523 172.598 25.5 171.375 25.5C170.58 25.5 169.983 25.6582 169.582 25.9746C169.181 26.284 168.981 26.748 168.981 27.3668C168.981 28.0137 170.074 28.9207 172.261 30.0879C174.04 31.0441 175.063 31.8387 175.33 32.4715C175.604 33.0973 175.741 33.7652 175.741 34.4754C175.741 35.727 175.298 36.7957 174.412 37.6816C173.533 38.5605 172.479 39 171.248 39H168.991C165.996 39 164.498 37.5023 164.498 34.507H166.755C166.931 36.0047 167.634 36.7535 168.865 36.7535C169.659 36.7535 170.257 36.5953 170.658 36.2789C171.058 35.9625 171.259 35.4949 171.259 34.8762C171.259 34.2434 170.169 33.3363 167.989 32.1551C166.203 31.2059 165.173 30.4148 164.899 29.782C164.632 29.1492 164.498 28.4812 164.498 27.7781C164.498 26.5195 164.941 25.4508 165.827 24.5719C166.713 23.6859 167.768 23.243 168.991 23.243H171.248C174.061 23.243 175.558 24.7477 175.741 27.757ZM182.523 41.257C182.628 42.7477 183.374 43.493 184.759 43.493H187.016C187.628 43.493 188.155 43.2715 188.598 42.8285C189.048 42.3926 189.273 41.8688 189.273 41.257V36.743C189.097 38.2477 188.345 39 187.016 39H184.759C183.528 39 182.47 38.5605 181.584 37.6816C180.705 36.7957 180.266 35.7375 180.266 34.507V23.243H184.759V34.507C184.759 35.1117 184.977 35.6355 185.413 36.0785C185.856 36.5215 186.39 36.743 187.016 36.743C187.642 36.743 188.172 36.5215 188.608 36.0785C189.051 35.6355 189.273 35.1117 189.273 34.507V23.243H193.766V41.257C193.766 42.4805 193.319 43.5352 192.426 44.4211C191.54 45.307 190.489 45.75 189.273 45.75H184.759C182.108 45.75 180.61 44.2523 180.266 41.257H182.523ZM198.248 39V18.75H207.255C208.486 18.75 209.54 19.193 210.419 20.0789C211.305 20.9648 211.748 22.0195 211.748 23.243V24.382C211.748 25.6969 211.372 26.7305 210.62 27.4828C209.874 28.2352 208.753 28.6992 207.255 28.875C208.753 28.875 209.874 29.3285 210.62 30.2355C211.372 31.1355 211.748 32.1797 211.748 33.368V34.507C211.748 35.7234 211.302 36.7781 210.409 37.6711C209.523 38.557 208.472 39 207.255 39H198.248ZM202.741 27.757H204.998C205.61 27.757 206.137 27.5355 206.58 27.0926C207.03 26.6426 207.255 26.1117 207.255 25.5V23.243C207.255 22.6312 207.03 22.1074 206.58 21.6715C206.137 21.2285 205.61 21.007 204.998 21.007H202.741V27.757ZM202.741 36.743H204.998C205.61 36.743 206.137 36.5215 206.58 36.0785C207.03 35.6355 207.255 35.1117 207.255 34.507V32.25C207.255 30.7453 206.503 29.993 204.998 29.993H202.741V36.743ZM229.731 23.243V39H225.238V36.743C225.062 38.2477 224.31 39 222.981 39H220.724C219.493 39 218.435 38.5605 217.549 37.6816C216.67 36.7957 216.231 35.7375 216.231 34.507V23.243H220.724V34.507C220.724 35.1117 220.942 35.6355 221.378 36.0785C221.821 36.5215 222.355 36.743 222.981 36.743C223.606 36.743 224.137 36.5215 224.573 36.0785C225.016 35.6355 225.238 35.1117 225.238 34.507V23.243H229.731ZM245.456 27.757H243.22C243.023 26.2523 242.313 25.5 241.09 25.5C240.295 25.5 239.697 25.6582 239.297 25.9746C238.896 26.284 238.696 26.748 238.696 27.3668C238.696 28.0137 239.789 28.9207 241.976 30.0879C243.754 31.0441 244.778 31.8387 245.045 32.4715C245.319 33.0973 245.456 33.7652 245.456 34.4754C245.456 35.727 245.013 36.7957 244.127 37.6816C243.248 38.5605 242.194 39 240.963 39H238.706C235.711 39 234.213 37.5023 234.213 34.507H236.47C236.646 36.0047 237.349 36.7535 238.579 36.7535C239.374 36.7535 239.972 36.5953 240.372 36.2789C240.773 35.9625 240.974 35.4949 240.974 34.8762C240.974 34.2434 239.884 33.3363 237.704 32.1551C235.918 31.2059 234.888 30.4148 234.614 29.782C234.347 29.1492 234.213 28.4812 234.213 27.7781C234.213 26.5195 234.656 25.4508 235.542 24.5719C236.428 23.6859 237.483 23.243 238.706 23.243H240.963C243.776 23.243 245.273 24.7477 245.456 27.757Z" fill="#F7FCED"/>
</svg>
